<svg xmlns="http://www.w3.org/2000/svg" width="960" height="610" viewBox="0 0 960 610">
  <style>
    .bg { fill: #f7f9fb; }
    .panel { fill: #ffffff; stroke: #d9dee7; stroke-width: 1.4; }
    .grid { stroke: #176b87; stroke-width: 3; stroke-linecap: round; }
    .joint { fill: #2d7d46; }
    .push { stroke: #a44d22; stroke-width: 4; fill: none; stroke-linecap: round; stroke-linejoin: round; }
    .title { font: 700 28px Segoe UI, Arial, sans-serif; fill: #172033; }
    .label { font: 700 18px Segoe UI, Arial, sans-serif; fill: #172033; }
    .meta { font: 15px Segoe UI, Arial, sans-serif; fill: #687386; }
    .badge { fill: #eaf4f6; stroke: #c9e2e8; }
    .highlight { stroke-width: 8; stroke-linecap: round; fill: none; }
    .marker { stroke: #ffffff; stroke-width: 3; }
    .x-critical { stroke: #dc2626; fill: #dc2626; }
    .x-first { stroke: #f59e0b; fill: #f59e0b; stroke-dasharray: 10 7; }
    .y-critical { stroke: #2563eb; fill: #2563eb; }
    .y-first { stroke: #38bdf8; fill: #38bdf8; stroke-dasharray: 10 7; }
    .legend text { font: 700 19px Segoe UI, Arial, sans-serif; fill: #172033; }
  </style>
  <rect width="100%" height="100%" class="bg"/>
  <text x="52" y="48" class="title">7Story X5 Y4 C30</text>
  <rect x="52" y="70" width="856" height="420" rx="8" class="panel"/>
  <text x="52" y="86" class="label">Plan</text>
  <text x="540" y="86" class="label">Elevation</text>
  <line x1="52.0" y1="96" x2="52.0" y2="416" class="grid"/><line x1="127.8" y1="96" x2="127.8" y2="416" class="grid"/><line x1="197.3" y1="96" x2="197.3" y2="416" class="grid"/><line x1="266.7" y1="96" x2="266.7" y2="416" class="grid"/><line x1="342.5" y1="96" x2="342.5" y2="416" class="grid"/><line x1="412.0" y1="96" x2="412.0" y2="416" class="grid"/><line x1="52" y1="96.0" x2="412" y2="96.0" class="grid"/><line x1="52" y1="179.5" x2="412" y2="179.5" class="grid"/><line x1="52" y1="235.1" x2="412" y2="235.1" class="grid"/><line x1="52" y1="325.6" x2="412" y2="325.6" class="grid"/><line x1="52" y1="416.0" x2="412" y2="416.0" class="grid"/><rect x="48.0" y="92.0" width="8" height="8" class="joint"/><rect x="48.0" y="175.5" width="8" height="8" class="joint"/><rect x="48.0" y="231.1" width="8" height="8" class="joint"/><rect x="48.0" y="321.6" width="8" height="8" class="joint"/><rect x="48.0" y="412.0" width="8" height="8" class="joint"/><rect x="123.8" y="92.0" width="8" height="8" class="joint"/><rect x="123.8" y="175.5" width="8" height="8" class="joint"/><rect x="123.8" y="231.1" width="8" height="8" class="joint"/><rect x="123.8" y="321.6" width="8" height="8" class="joint"/><rect x="123.8" y="412.0" width="8" height="8" class="joint"/><rect x="193.3" y="92.0" width="8" height="8" class="joint"/><rect x="193.3" y="175.5" width="8" height="8" class="joint"/><rect x="193.3" y="231.1" width="8" height="8" class="joint"/><rect x="193.3" y="321.6" width="8" height="8" class="joint"/><rect x="193.3" y="412.0" width="8" height="8" class="joint"/><rect x="262.7" y="92.0" width="8" height="8" class="joint"/><rect x="262.7" y="175.5" width="8" height="8" class="joint"/><rect x="262.7" y="231.1" width="8" height="8" class="joint"/><rect x="262.7" y="321.6" width="8" height="8" class="joint"/><rect x="262.7" y="412.0" width="8" height="8" class="joint"/><rect x="338.5" y="92.0" width="8" height="8" class="joint"/><rect x="338.5" y="175.5" width="8" height="8" class="joint"/><rect x="338.5" y="231.1" width="8" height="8" class="joint"/><rect x="338.5" y="321.6" width="8" height="8" class="joint"/><rect x="338.5" y="412.0" width="8" height="8" class="joint"/><rect x="408.0" y="92.0" width="8" height="8" class="joint"/><rect x="408.0" y="175.5" width="8" height="8" class="joint"/><rect x="408.0" y="231.1" width="8" height="8" class="joint"/><rect x="408.0" y="321.6" width="8" height="8" class="joint"/><rect x="408.0" y="412.0" width="8" height="8" class="joint"/>
  <line x1="540.0" y1="96" x2="540.0" y2="416" class="grid"/><line x1="606.0" y1="96" x2="606.0" y2="416" class="grid"/><line x1="672.0" y1="96" x2="672.0" y2="416" class="grid"/><line x1="738.0" y1="96" x2="738.0" y2="416" class="grid"/><line x1="804.0" y1="96" x2="804.0" y2="416" class="grid"/><line x1="870.0" y1="96" x2="870.0" y2="416" class="grid"/><line x1="540" y1="416.0" x2="870" y2="416.0" class="grid"/><line x1="540" y1="370.3" x2="870" y2="370.3" class="grid"/><line x1="540" y1="324.6" x2="870" y2="324.6" class="grid"/><line x1="540" y1="278.9" x2="870" y2="278.9" class="grid"/><line x1="540" y1="233.1" x2="870" y2="233.1" class="grid"/><line x1="540" y1="187.4" x2="870" y2="187.4" class="grid"/><line x1="540" y1="141.7" x2="870" y2="141.7" class="grid"/><line x1="540" y1="96.0" x2="870" y2="96.0" class="grid"/>
  <circle cx="280.7" cy="416.0" r="15" class="marker x-critical"/><line x1="744.8" y1="416.0" x2="744.8" y2="370.3" class="highlight x-critical"/><line x1="52.0" y1="96.0" x2="127.8" y2="96.0" class="highlight x-first"/><line x1="540.0" y1="365.3" x2="609.5" y2="365.3" class="highlight x-first"/><circle cx="52.0" cy="249.1" r="15" class="marker y-critical"/><line x1="558.0" y1="416.0" x2="558.0" y2="370.3" class="highlight y-critical"/><line x1="52.0" y1="179.5" x2="52.0" y2="235.1" class="highlight y-first"/><line x1="626.1" y1="375.3" x2="683.5" y2="375.3" class="highlight y-first"/>
  <path d="M 904.0 416.0 L 904.0 150.0 L 892.0 170.0 M 904.0 150.0 L 916.0 170.0" class="push"/>
  
  <g class="legend">
    <line x1="54" y1="518" x2="92" y2="518" class="highlight x-critical"/>
    <text x="106" y="525">X critical</text>
    <line x1="245" y1="518" x2="283" y2="518" class="highlight x-first"/>
    <text x="297" y="525">X first</text>
    <line x1="430" y1="518" x2="468" y2="518" class="highlight y-critical"/>
    <text x="482" y="525">Y critical</text>
    <line x1="620" y1="518" x2="658" y2="518" class="highlight y-first"/>
    <text x="672" y="525">Y first</text>
  </g>
  <rect x="52" y="568" width="856" height="34" rx="6" class="badge"/>
  <text x="70" y="591" class="meta">
    7 stories, total H=21.00 m | X5 Y4 | C30 | Column 50x50 cm | Beam 30x60 cm | rhoC=0.0250, top=0.0120, bottom=0.0050 | Push=0.025 | Soil ZB | ks=80000 kN/m3 | Raft=0.70 m rhoR=0.0030 | Slab=0.20 m rhoS=0.0040
  </text>
</svg>
